<?xml version="1.0" encoding="UTF-8" standalone="no"?>
<!-- Created with Inkscape (http://www.inkscape.org/) -->

<svg
   xmlns:ns0="http://www.iki.fi/pav/software/textext/"
   xmlns:dc="http://purl.org/dc/elements/1.1/"
   xmlns:cc="http://creativecommons.org/ns#"
   xmlns:rdf="http://www.w3.org/1999/02/22-rdf-syntax-ns#"
   xmlns:svg="http://www.w3.org/2000/svg"
   xmlns="http://www.w3.org/2000/svg"
   xmlns:sodipodi="http://sodipodi.sourceforge.net/DTD/sodipodi-0.dtd"
   xmlns:inkscape="http://www.inkscape.org/namespaces/inkscape"
   sodipodi:docname="stochastic_interaction_2states.eps"
   inkscape:version="0.48.2 r9819"
   version="1.1"
   id="svg2"
   height="1052.3622047"
   width="744.09448819">
  <sodipodi:namedview
     id="base"
     pagecolor="#ffffff"
     bordercolor="#666666"
     borderopacity="1.0"
     inkscape:pageopacity="0.0"
     inkscape:pageshadow="2"
     inkscape:zoom="0.98994949"
     inkscape:cx="269.56405"
     inkscape:cy="619.51126"
     inkscape:document-units="px"
     inkscape:current-layer="layer1"
     showgrid="true"
     inkscape:window-width="1276"
     inkscape:window-height="756"
     inkscape:window-x="4"
     inkscape:window-y="0"
     inkscape:window-maximized="1">
    <inkscape:grid
       type="xygrid"
       id="grid2985" />
  </sodipodi:namedview>
  <defs
     id="defs4">
    <marker
       inkscape:stockid="Arrow2Lend"
       orient="auto"
       refY="0.0"
       refX="0.0"
       id="Arrow2Lend"
       style="overflow:visible;">
      <path
         id="path3838"
         style="font-size:12.0;fill-rule:evenodd;stroke-width:0.62500000;stroke-linejoin:round;"
         d="M 8.7185878,4.0337352 L -2.2072895,0.016013256 L 8.7185884,-4.0017078 C 6.9730900,-1.6296469 6.9831476,1.6157441 8.7185878,4.0337352 z "
         transform="scale(1.1) rotate(180) translate(1,0)" />
    </marker>
    <marker
       inkscape:stockid="Arrow1Mend"
       orient="auto"
       refY="0.0"
       refX="0.0"
       id="Arrow1Mend"
       style="overflow:visible;">
      <path
         id="path3826"
         d="M 0.0,0.0 L 5.0,-5.0 L -12.5,0.0 L 5.0,5.0 L 0.0,0.0 z "
         style="fill-rule:evenodd;stroke:#000000;stroke-width:1.0pt;marker-start:none;"
         transform="scale(0.4) rotate(180) translate(10,0)" />
    </marker>
    <marker
       inkscape:stockid="Arrow1Lstart"
       orient="auto"
       refY="0.0"
       refX="0.0"
       id="Arrow1Lstart"
       style="overflow:visible">
      <path
         id="path3817"
         d="M 0.0,0.0 L 5.0,-5.0 L -12.5,0.0 L 5.0,5.0 L 0.0,0.0 z "
         style="fill-rule:evenodd;stroke:#000000;stroke-width:1.0pt;marker-start:none"
         transform="scale(0.8) translate(12.5,0)" />
    </marker>
    <marker
       inkscape:stockid="Arrow1Lend"
       orient="auto"
       refY="0.0"
       refX="0.0"
       id="Arrow1Lend"
       style="overflow:visible;">
      <path
         id="path3820"
         d="M 0.0,0.0 L 5.0,-5.0 L -12.5,0.0 L 5.0,5.0 L 0.0,0.0 z "
         style="fill-rule:evenodd;stroke:#000000;stroke-width:1.0pt;marker-start:none;"
         transform="scale(0.8) rotate(180) translate(12.5,0)" />
    </marker>
  </defs>
  <metadata
     id="metadata7">
    <rdf:RDF>
      <cc:Work
         rdf:about="">
        <dc:format>image/svg+xml</dc:format>
        <dc:type
           rdf:resource="http://purl.org/dc/dcmitype/StillImage" />
        <dc:title></dc:title>
      </cc:Work>
    </rdf:RDF>
  </metadata>
  <g
     inkscape:label="Layer 1"
     inkscape:groupmode="layer"
     id="layer1">
    <path
       sodipodi:type="arc"
       style="fill:none;stroke:#060816;stroke-width:1.20000005;stroke-linecap:square;stroke-linejoin:miter;stroke-miterlimit:4;stroke-opacity:1;stroke-dasharray:none;stroke-dashoffset:0"
       id="path2992"
       sodipodi:cx="160"
       sodipodi:cy="392.36218"
       sodipodi:rx="60"
       sodipodi:ry="60"
       d="m 220,392.36218 a 60,60 0 1 1 -120,0 60,60 0 1 1 120,0 z"
       transform="translate(20,0)" />
    <path
       sodipodi:type="arc"
       style="fill:none;stroke:#060816;stroke-width:1.20000005;stroke-linecap:square;stroke-linejoin:miter;stroke-miterlimit:4;stroke-opacity:1;stroke-dasharray:none;stroke-dashoffset:0"
       id="path2994"
       sodipodi:cx="560"
       sodipodi:cy="392.36218"
       sodipodi:rx="60"
       sodipodi:ry="60"
       d="m 620,392.36218 a 60,60 0 1 1 -120,0 60,60 0 1 1 120,0 z"
       transform="translate(-38,0)" />
    <path
       style="fill:none;stroke:#000000;stroke-width:1px;stroke-linecap:butt;stroke-linejoin:miter;stroke-opacity:1;marker-start:url(#Arrow1Lstart)"
       d="m 180,452.36218 c 26.17876,54.56036 92.87959,57.54718 160,60 81.34585,5.51873 149.06823,-5.24926 180,-60"
       id="path3012"
       inkscape:connector-curvature="0"
       sodipodi:nodetypes="ccc" />
    <text
       xml:space="preserve"
       style="font-size:43px;font-style:normal;font-variant:normal;font-weight:normal;font-stretch:normal;line-height:125%;letter-spacing:0px;word-spacing:0px;fill:#000000;fill-opacity:1;stroke:none;font-family:Serif;-inkscape-font-specification:Serif"
       x="163.70563"
       y="396.69196"
       id="text3018"
       sodipodi:linespacing="125%"><tspan
         sodipodi:role="line"
         id="tspan3020"
         x="163.70563"
         y="396.69196">1</tspan><tspan
         sodipodi:role="line"
         x="163.70563"
         y="423.52972"
         id="tspan3026"
         style="font-size:16px">(   )</tspan></text>
    <text
       xml:space="preserve"
       style="font-size:43px;font-style:normal;font-variant:normal;font-weight:normal;font-stretch:normal;line-height:125%;letter-spacing:0px;word-spacing:0px;fill:#000000;fill-opacity:1;stroke:none;font-family:Serif;-inkscape-font-specification:Serif"
       x="338"
       y="264.36218"
       id="text3030"
       sodipodi:linespacing="125%"><tspan
         sodipodi:role="line"
         id="tspan3032"
         x="338"
         y="264.36218"
         style="font-size:16px">H/</tspan></text>
    <text
       xml:space="preserve"
       style="font-size:43px;font-style:normal;font-variant:normal;font-weight:normal;font-stretch:normal;line-height:125%;letter-spacing:0px;word-spacing:0px;fill:#000000;fill-opacity:1;stroke:none;font-family:Serif;-inkscape-font-specification:Serif"
       x="348.50262"
       y="530.05243"
       id="text3042"
       sodipodi:linespacing="125%"><tspan
         id="tspan3392"
         sodipodi:role="line"
         x="348.50262"
         y="530.05243"
         style="font-size:16px">H/</tspan></text>
    <path
       style="fill:none;stroke:#000000;stroke-width:1px;stroke-linecap:butt;stroke-linejoin:miter;stroke-opacity:1;marker-end:url(#Arrow2Lend)"
       d="m 180,332.36218 c 38.23674,-48.48261 102.57265,-56.63014 170,-60 102.84828,-0.73304 160.6457,20.33272 180,60"
       id="path7440"
       inkscape:connector-curvature="0"
       sodipodi:nodetypes="ccc" />
    <text
       xml:space="preserve"
       style="font-size:43px;font-style:normal;font-variant:normal;font-weight:normal;font-stretch:normal;line-height:125%;letter-spacing:0px;word-spacing:0px;fill:#000000;fill-opacity:1;stroke:none;font-family:Serif;-inkscape-font-specification:Serif"
       x="377.79706"
       y="266.4635"
       id="text3011"
       sodipodi:linespacing="125%"><tspan
         sodipodi:role="line"
         id="tspan3013"
         x="377.79706"
         y="266.4635" /></text>
    <text
       xml:space="preserve"
       style="font-size:43px;font-style:normal;font-variant:normal;font-weight:normal;font-stretch:normal;line-height:125%;letter-spacing:0px;word-spacing:0px;fill:#000000;fill-opacity:1;stroke:none;font-family:Serif;-inkscape-font-specification:Serif"
       x="379.63461"
       y="260.44318"
       id="text3016"
       sodipodi:linespacing="125%"><tspan
         sodipodi:role="line"
         id="tspan3018"
         x="379.63461"
         y="260.44318"> </tspan></text>
    <g
       style="font-style:normal;font-variant:normal;font-weight:normal;font-stretch:normal;letter-spacing:normal;word-spacing:normal;text-anchor:start;fill:none;stroke:#000000;stroke-linecap:butt;stroke-linejoin:miter;stroke-miterlimit:10.43299961;stroke-opacity:1;stroke-dasharray:none;stroke-dashoffset:0"
       id="g3338"
       transform="matrix(1.9791938,0,0,-2.0361422,-83.63021,1599.931)"
       xml:space="preserve"
       stroke-miterlimit="10.433"
       font-style="normal"
       font-variant="normal"
       font-weight="normal"
       font-stretch="normal"
       font-size-adjust="none"
       letter-spacing="normal"
       word-spacing="normal"
       ns0:text="$p_1$\n"
       ns0:preamble="">
<path
   style="fill:#000000;stroke-width:0"
   inkscape:connector-curvature="0"
   d="m 223.88,656.02 -0.01,-0.03 0,-0.03 -0.01,-0.03 -0.01,-0.02 0,-0.03 -0.01,-0.02 -0.01,-0.02 -0.01,-0.02 0,-0.02 -0.01,-0.02 -0.01,-0.02 -0.01,-0.01 -0.01,-0.02 -0.01,-0.01 -0.01,-0.02 -0.01,-0.01 -0.02,-0.01 -0.01,-0.01 -0.02,-0.01 -0.02,0 -0.02,-0.01 -0.02,-0.01 -0.02,0 -0.02,-0.01 -0.03,0 -0.02,-0.01 -0.02,0 -0.01,0 -0.02,0 -0.01,0 -0.02,0 -0.02,0 -0.01,0 -0.02,0 -0.02,0 -0.02,0 -0.02,0 -0.02,0 c -0.12,0 -0.23,0 -0.23,-0.19 0,-0.08 0.05,-0.12 0.13,-0.12 0.27,0 0.56,0.03 0.84,0.03 0.33,0 0.66,-0.03 0.98,-0.03 0.05,0 0.18,0 0.18,0.2 0,0.11 -0.1,0.11 -0.24,0.11 -0.49,0 -0.49,0.06 -0.49,0.16 0,0.11 0.41,1.73 0.48,1.98 0.13,-0.29 0.41,-0.63 0.92,-0.63 l -0.01,0.21 c -0.66,0 -0.79,0.83 -0.79,0.89 0,0.02 0,0.04 0.03,0.16 l 0.49,1.94 c 0.07,0.27 0.34,0.55 0.52,0.7 0.35,0.31 0.64,0.38 0.8,0.38 0.4,0 0.64,-0.35 0.64,-0.94 0,-0.58 -0.33,-1.73 -0.51,-2.1 -0.34,-0.7 -0.81,-1.03 -1.18,-1.03 l 0.01,-0.21 c 1.15,0 2.4,1.45 2.4,2.91 0,0.93 -0.57,1.59 -1.33,1.59 -0.49,0 -0.97,-0.36 -1.3,-0.75 -0.1,0.54 -0.53,0.75 -0.89,0.75 -0.46,0 -0.65,-0.39 -0.74,-0.57 -0.18,-0.34 -0.31,-0.93 -0.31,-0.96 0,-0.1 0.1,-0.1 0.12,-0.1 0.1,0 0.11,0.01 0.17,0.22 0.17,0.71 0.37,1.19 0.73,1.19 0.16,0 0.3,-0.08 0.3,-0.46 0,-0.23 -0.03,-0.34 -0.07,-0.51 z"
   id="path3340" />
<path
   style="fill:#000000;stroke-width:0"
   inkscape:connector-curvature="0"
   d="m 230.78,660.16 0,0.01 0,0.01 0,0.01 0,0.01 0,0 0,0.01 0,0.01 0,0.01 0,0 0,0.01 0,0.01 0,0 -0.01,0.01 0,0 0,0.01 0,0 0,0.01 0,0 0,0.01 0,0.01 -0.01,0.01 0,0 0,0.01 -0.01,0.01 0,0 -0.01,0.01 -0.01,0 0,0 -0.01,0.01 -0.01,0 -0.01,0 -0.01,0 0,0 -0.01,0 0,0 -0.01,0.01 0,0 -0.01,0 -0.01,0 0,0 -0.01,0 -0.01,0 0,0 -0.01,0 -0.01,0 -0.01,0 0,0 -0.01,0 -0.01,0 -0.01,0 c -0.45,-0.44 -1.08,-0.45 -1.37,-0.45 v -0.25 c 0.17,0 0.63,0 1.01,0.2 v -3.55 c 0,-0.23 0,-0.32 -0.69,-0.32 h -0.27 v -0.25 c 0.13,0.01 0.99,0.03 1.24,0.03 0.22,0 1.1,-0.02 1.25,-0.03 v 0.25 h -0.26 c -0.7,0 -0.7,0.09 -0.7,0.32 z"
   id="path3342" />
</g>    <g
       id="content"
       transform="matrix(2.2366412,0,0,-1.8373576,-328.92893,1629.6504)"
       xml:space="preserve"
       stroke="black"
       stroke-linecap="butt"
       stroke-linejoin="miter"
       stroke-miterlimit="10.433"
       stroke-dasharray="none"
       stroke-dashoffset="0"
       stroke-opacity="1"
       fill="none"
       fill-rule="evenodd"
       fill-opacity="1"
       font-style="normal"
       font-variant="normal"
       font-weight="normal"
       font-stretch="normal"
       font-size-adjust="none"
       letter-spacing="normal"
       word-spacing="normal"
       text-anchor="start"
       ns0:text="$0$\n\n"
       ns0:preamble=""
       style="font-style:normal;font-variant:normal;font-weight:normal;font-stretch:normal;letter-spacing:normal;word-spacing:normal;text-anchor:start;fill:none;stroke:#000000;stroke-linecap:butt;stroke-linejoin:miter;stroke-miterlimit:10.43299961;stroke-opacity:1;stroke-dasharray:none;stroke-dashoffset:0">
<path
   d="M228.01,660.41 L228.01,660.56 L228.01,660.71 L228,660.86 L228,661.01 L227.99,661.16 L227.97,661.3 L227.96,661.45 L227.94,661.6 L227.92,661.74 L227.89,661.89 L227.86,662.03 L227.82,662.18 L227.78,662.32 L227.73,662.46 L227.67,662.6 L227.64,662.67 L227.61,662.74 C227.15,663.69,226.34,663.85,225.92,663.85 C225.32,663.85,224.6,663.59,224.19,662.67 C223.87,661.98,223.82,661.21,223.82,660.41 C223.82,659.67,223.86,658.78,224.27,658.02 C224.7,657.22,225.42,657.02,225.91,657.02 V657.23 C225.52,657.23,224.93,657.48,224.76,658.44 C224.65,659.03,224.65,659.95,224.65,660.53 C224.65,661.17,224.65,661.82,224.73,662.36 C224.91,663.54,225.66,663.63,225.91,663.63 C226.24,663.63,226.89,663.45,227.08,662.47 C227.18,661.91,227.18,661.16,227.18,660.53 C227.18,659.79,227.18,659.11,227.07,658.48 C226.92,657.53,226.36,657.23,225.91,657.23 H225.91 V657.02 C226.45,657.02,227.2,657.22,227.64,658.17 C227.96,658.85,228.01,659.63,228.01,660.41 Z "
   stroke-width="0"
   fill="black"
   id="path3081" />
</g>    <text
       sodipodi:linespacing="125%"
       id="text3124"
       y="392.36218"
       x="510"
       style="font-size:43px;font-style:normal;font-variant:normal;font-weight:normal;font-stretch:normal;line-height:125%;letter-spacing:0px;word-spacing:0px;fill:#000000;fill-opacity:1;stroke:none;font-family:Serif;-inkscape-font-specification:Serif"
       xml:space="preserve"><tspan
         y="392.36218"
         x="510"
         id="tspan3126"
         sodipodi:role="line">2</tspan><tspan
         style="font-size:16px"
         y="419.19995"
         x="510"
         sodipodi:role="line"
         id="tspan3104">(   )</tspan></text>
    <g
       id="g3261"
       transform="matrix(2.0150565,0,0,-2.0361422,-81.236245,1865.9605)"
       xml:space="preserve"
       stroke="black"
       stroke-linecap="butt"
       stroke-linejoin="miter"
       stroke-miterlimit="10.433"
       stroke-dasharray="none"
       stroke-dashoffset="0"
       stroke-opacity="1"
       fill="none"
       fill-rule="evenodd"
       fill-opacity="1"
       font-style="normal"
       font-variant="normal"
       font-weight="normal"
       font-stretch="normal"
       font-size-adjust="none"
       letter-spacing="normal"
       word-spacing="normal"
       text-anchor="start"
       ns0:text="$p_2$\n\n"
       ns0:preamble=""
       style="font-style:normal;font-variant:normal;font-weight:normal;font-stretch:normal;letter-spacing:normal;word-spacing:normal;text-anchor:start;fill:none;stroke:#000000;stroke-linecap:butt;stroke-linejoin:miter;stroke-miterlimit:10.43299961;stroke-opacity:1;stroke-dasharray:none;stroke-dashoffset:0">
<path
   d="M223.88,656.02 L223.87,655.99 L223.87,655.96 L223.86,655.93 L223.85,655.91 L223.85,655.88 L223.84,655.86 L223.83,655.84 L223.82,655.82 L223.82,655.8 L223.81,655.78 L223.8,655.76 L223.79,655.75 L223.78,655.73 L223.77,655.72 L223.76,655.7 L223.75,655.69 L223.73,655.68 L223.72,655.67 L223.7,655.66 L223.68,655.66 L223.66,655.65 L223.64,655.64 L223.62,655.64 L223.6,655.63 L223.57,655.63 L223.55,655.62 L223.53,655.62 L223.52,655.62 L223.5,655.62 L223.49,655.62 L223.47,655.62 L223.45,655.62 L223.44,655.62 L223.42,655.62 L223.4,655.62 L223.38,655.62 L223.36,655.62 L223.34,655.62 C223.22,655.62,223.11,655.62,223.11,655.43 C223.11,655.35,223.16,655.31,223.24,655.31 C223.51,655.31,223.8,655.34,224.08,655.34 C224.41,655.34,224.74,655.31,225.06,655.31 C225.11,655.31,225.24,655.31,225.24,655.51 C225.24,655.62,225.14,655.62,225,655.62 C224.51,655.62,224.51,655.68,224.51,655.78 C224.51,655.89,224.92,657.51,224.99,657.76 C225.12,657.47,225.4,657.13,225.91,657.13 L225.9,657.34 C225.24,657.34,225.11,658.17,225.11,658.23 C225.11,658.25,225.11,658.27,225.14,658.39 L225.63,660.33 C225.7,660.6,225.97,660.88,226.15,661.03 C226.5,661.34,226.79,661.41,226.95,661.41 C227.35,661.41,227.59,661.06,227.59,660.47 C227.59,659.89,227.26,658.74,227.08,658.37 C226.74,657.67,226.27,657.34,225.9,657.34 L225.91,657.13 C227.06,657.13,228.31,658.58,228.31,660.04 C228.31,660.97,227.74,661.63,226.98,661.63 C226.49,661.63,226.01,661.27,225.68,660.88 C225.58,661.42,225.15,661.63,224.79,661.63 C224.33,661.63,224.14,661.24,224.05,661.06 C223.87,660.72,223.74,660.13,223.74,660.1 C223.74,660,223.84,660,223.86,660 C223.96,660,223.97,660.01,224.03,660.22 C224.2,660.93,224.4,661.41,224.76,661.41 C224.92,661.41,225.06,661.33,225.06,660.95 C225.06,660.72,225.03,660.61,224.99,660.44 Z "
   stroke-width="0"
   fill="black"
   id="path3263" />
<path
   d="M231.96,657.01 H231.73 C231.7,656.85,231.63,656.44,231.54,656.37 C231.49,656.33,230.95,656.33,230.85,656.33 H229.57 C230.3,656.98,230.55,657.17,230.97,657.5 C231.48,657.91,231.96,658.34,231.96,659 C231.96,659.84,231.22,660.36,230.33,660.36 C229.47,660.36,228.88,659.75,228.88,659.11 C228.88,658.76,229.18,658.72,229.25,658.72 C229.42,658.72,229.62,658.84,229.62,659.09 C229.62,659.22,229.57,659.46,229.21,659.46 C229.43,659.96,229.9,660.11,230.23,660.11 C230.92,660.11,231.29,659.57,231.29,659 C231.29,658.4,230.85,657.92,230.63,657.67 L228.95,656.01 C228.88,655.95,228.88,655.94,228.88,655.74 H231.75 Z "
   stroke-width="0"
   fill="black"
   id="path3265" />
</g>    <g
       style="font-style:normal;font-variant:normal;font-weight:normal;font-stretch:normal;letter-spacing:normal;word-spacing:normal;text-anchor:start;fill:none;stroke:#000000;stroke-linecap:butt;stroke-linejoin:miter;stroke-miterlimit:10.43299961;stroke-opacity:1;stroke-dasharray:none;stroke-dashoffset:0"
       ns0:preamble=""
       ns0:text="$v$\n\n\n"
       text-anchor="start"
       word-spacing="normal"
       letter-spacing="normal"
       font-size-adjust="none"
       font-stretch="normal"
       font-weight="normal"
       font-variant="normal"
       font-style="normal"
       fill-opacity="1"
       fill-rule="evenodd"
       fill="none"
       stroke-opacity="1"
       stroke-dashoffset="0"
       stroke-dasharray="none"
       stroke-miterlimit="10.433"
       stroke-linejoin="miter"
       stroke-linecap="butt"
       stroke="black"
       xml:space="preserve"
       transform="matrix(2.2625369,0,0,-1.8373576,10.861321,1624.0131)"
       id="g3060">
<path
   id="path3062"
   fill="black"
   stroke-width="0"
   d="M228.09,660.93 L228.09,660.95 L228.09,660.98 L228.09,661 L228.09,661.03 L228.08,661.05 L228.08,661.07 L228.08,661.09 L228.08,661.11 L228.07,661.15 L228.06,661.19 L228.05,661.23 L228.04,661.27 L228.03,661.3 L228.02,661.33 L228.01,661.36 L228,661.39 L227.98,661.41 L227.97,661.44 L227.95,661.46 L227.94,661.48 L227.92,661.5 L227.9,661.52 L227.89,661.53 L227.87,661.55 L227.85,661.56 L227.83,661.57 L227.81,661.58 L227.79,661.59 L227.78,661.6 L227.76,661.61 L227.74,661.61 L227.72,661.62 L227.7,661.62 L227.69,661.62 L227.67,661.63 L227.65,661.63 C227.4,661.63,227.16,661.37,227.16,661.15 C227.16,661.02,227.21,660.96,227.32,660.85 C227.53,660.65,227.66,660.39,227.66,660.04 C227.66,659.62,227.05,657.34,225.89,657.34 C225.38,657.34,225.15,657.69,225.15,658.21 C225.15,658.77,225.42,659.49,225.73,660.31 C225.8,660.48,225.85,660.62,225.85,660.81 C225.85,661.26,225.53,661.63,225.03,661.63 C224.1,661.63,223.72,660.18,223.72,660.1 C223.72,660,223.82,660,223.84,660 C223.94,660,223.95,660.02,224,660.17 C224.29,661.18,224.71,661.41,225,661.41 C225.08,661.41,225.25,661.41,225.25,661.09 C225.25,660.84,225.15,660.57,225.08,660.39 C224.65,659.24,224.52,658.78,224.52,658.36 C224.52,657.28,225.39,657.13,225.85,657.13 C227.52,657.13,228.09,660.41,228.09,660.93 Z " />
</g>  </g>
</svg>
