<?xml version="1.0" encoding="UTF-8" standalone="no"?>
<!-- Created with Inkscape (http://www.inkscape.org/) -->

<svg
   xmlns:ns0="http://www.iki.fi/pav/software/textext/"
   xmlns:dc="http://purl.org/dc/elements/1.1/"
   xmlns:cc="http://creativecommons.org/ns#"
   xmlns:rdf="http://www.w3.org/1999/02/22-rdf-syntax-ns#"
   xmlns:svg="http://www.w3.org/2000/svg"
   xmlns="http://www.w3.org/2000/svg"
   xmlns:sodipodi="http://sodipodi.sourceforge.net/DTD/sodipodi-0.dtd"
   xmlns:inkscape="http://www.inkscape.org/namespaces/inkscape"
   width="800"
   height="990"
   id="svg2"
   version="1.1"
   inkscape:version="0.48.2 r9819"
   sodipodi:docname="stochastic_interaction_nstates.eps">
  <sodipodi:namedview
     id="base"
     pagecolor="#ffffff"
     bordercolor="#666666"
     borderopacity="1.0"
     inkscape:pageopacity="0.0"
     inkscape:pageshadow="2"
     inkscape:zoom="0.7"
     inkscape:cx="363.37503"
     inkscape:cy="722.3651"
     inkscape:document-units="px"
     inkscape:current-layer="layer1"
     showgrid="true"
     inkscape:window-width="1276"
     inkscape:window-height="756"
     inkscape:window-x="4"
     inkscape:window-y="0"
     inkscape:window-maximized="1">
    <inkscape:grid
       type="xygrid"
       id="grid2985"
       empspacing="5"
       visible="true"
       enabled="true"
       snapvisiblegridlinesonly="true" />
  </sodipodi:namedview>
  <defs
     id="defs4">
    <marker
       inkscape:stockid="Arrow2Lend"
       orient="auto"
       refY="0"
       refX="0"
       id="Arrow2Lend"
       style="overflow:visible">
      <path
         id="path3838"
         style="font-size:12px;fill-rule:evenodd;stroke-width:0.625;stroke-linejoin:round"
         d="M 8.7185878,4.0337352 -2.2072895,0.01601326 8.7185884,-4.0017078 c -1.7454984,2.3720609 -1.7354408,5.6174519 -6e-7,8.035443 z"
         transform="matrix(-1.1,0,0,-1.1,-1.1,0)"
         inkscape:connector-curvature="0" />
    </marker>
    <marker
       inkscape:stockid="Arrow1Mend"
       orient="auto"
       refY="0"
       refX="0"
       id="Arrow1Mend"
       style="overflow:visible">
      <path
         id="path3826"
         d="M 0,0 5,-5 -12.5,0 5,5 0,0 z"
         style="fill-rule:evenodd;stroke:#000000;stroke-width:1pt;marker-start:none"
         transform="matrix(-0.4,0,0,-0.4,-4,0)"
         inkscape:connector-curvature="0" />
    </marker>
    <marker
       inkscape:stockid="Arrow1Lstart"
       orient="auto"
       refY="0"
       refX="0"
       id="Arrow1Lstart"
       style="overflow:visible">
      <path
         id="path3817"
         d="M 0,0 5,-5 -12.5,0 5,5 0,0 z"
         style="fill-rule:evenodd;stroke:#000000;stroke-width:1pt;marker-start:none"
         transform="matrix(0.8,0,0,0.8,10,0)"
         inkscape:connector-curvature="0" />
    </marker>
    <marker
       inkscape:stockid="Arrow1Lend"
       orient="auto"
       refY="0"
       refX="0"
       id="Arrow1Lend"
       style="overflow:visible">
      <path
         id="path3820"
         d="M 0,0 5,-5 -12.5,0 5,5 0,0 z"
         style="fill-rule:evenodd;stroke:#000000;stroke-width:1pt;marker-start:none"
         transform="matrix(-0.8,0,0,-0.8,-10,0)"
         inkscape:connector-curvature="0" />
    </marker>
  </defs>
  <metadata
     id="metadata7">
    <rdf:RDF>
      <cc:Work
         rdf:about="">
        <dc:format>image/svg+xml</dc:format>
        <dc:type
           rdf:resource="http://purl.org/dc/dcmitype/StillImage" />
        <dc:title></dc:title>
      </cc:Work>
    </rdf:RDF>
  </metadata>
  <g
     inkscape:label="Layer 1"
     inkscape:groupmode="layer"
     id="layer1"
     transform="translate(0,-62.36216)">
    <path
       sodipodi:type="arc"
       style="fill:none;stroke:#060816;stroke-width:1.20000005;stroke-linecap:square;stroke-linejoin:miter;stroke-miterlimit:4;stroke-opacity:1;stroke-dasharray:none;stroke-dashoffset:0"
       id="path2992"
       sodipodi:cx="160"
       sodipodi:cy="392.36218"
       sodipodi:rx="60"
       sodipodi:ry="60"
       d="m 220,392.36218 a 60,60 0 1 1 -120,0 60,60 0 1 1 120,0 z"
       transform="matrix(0.66666666,0,0,0.66666666,-26.666666,140.7874)" />
    <text
       xml:space="preserve"
       style="font-size:43px;font-style:normal;font-variant:normal;font-weight:normal;font-stretch:normal;line-height:125%;letter-spacing:0px;word-spacing:0px;fill:#000000;fill-opacity:1;stroke:none;font-family:Serif;-inkscape-font-specification:Serif"
       x="138"
       y="512.36218"
       id="text3042"
       sodipodi:linespacing="125%"><tspan
         sodipodi:role="line"
         id="tspan3044"
         x="138"
         y="512.36218"
         style="font-size:16px">H/p2</tspan></text>
    <text
       xml:space="preserve"
       style="font-size:43px;font-style:normal;font-variant:normal;font-weight:normal;font-stretch:normal;line-height:125%;letter-spacing:0px;word-spacing:0px;fill:#000000;fill-opacity:1;stroke:none;font-family:Serif;-inkscape-font-specification:Serif"
       x="70"
       y="412.36218"
       id="text4399"
       sodipodi:linespacing="125%"><tspan
         sodipodi:role="line"
         id="tspan4401"
         x="70"
         y="412.36218"
         style="font-size:32px">1</tspan><tspan
         sodipodi:role="line"
         x="70"
         y="452.36218"
         id="tspan4403"
         style="font-size:16px" /></text>
    <text
       sodipodi:linespacing="125%"
       id="text4977"
       y="302.36218"
       x="140"
       style="font-size:43px;font-style:normal;font-variant:normal;font-weight:normal;font-stretch:normal;line-height:125%;letter-spacing:0px;word-spacing:0px;fill:#000000;fill-opacity:1;stroke:none;font-family:Serif;-inkscape-font-specification:Serif"
       xml:space="preserve"><tspan
         style="font-size:16px"
         y="302.36218"
         x="140"
         id="tspan4979"
         sodipodi:role="line">H/p1</tspan></text>
    <text
       xml:space="preserve"
       style="font-size:43px;font-style:normal;font-variant:normal;font-weight:normal;font-stretch:normal;line-height:125%;letter-spacing:0px;word-spacing:0px;fill:#000000;fill-opacity:1;stroke:none;font-family:Serif;-inkscape-font-specification:Serif"
       x="82.14286"
       y="350.93362"
       id="text6109"
       sodipodi:linespacing="125%"><tspan
         sodipodi:role="line"
         id="tspan6111"
         x="82.14286"
         y="350.93362" /></text>
    <path
       transform="matrix(0.66666666,0,0,0.66666666,123.90476,140.35884)"
       d="m 220,392.36218 a 60,60 0 1 1 -120,0 60,60 0 1 1 120,0 z"
       sodipodi:ry="60"
       sodipodi:rx="60"
       sodipodi:cy="392.36218"
       sodipodi:cx="160"
       id="path3831"
       style="fill:none;stroke:#060816;stroke-width:1.20000005;stroke-linecap:square;stroke-linejoin:miter;stroke-miterlimit:4;stroke-opacity:1;stroke-dasharray:none;stroke-dashoffset:0"
       sodipodi:type="arc" />
    <text
       sodipodi:linespacing="125%"
       id="text3833"
       y="412.36218"
       x="222"
       style="font-size:43px;font-style:normal;font-variant:normal;font-weight:normal;font-stretch:normal;line-height:125%;letter-spacing:0px;word-spacing:0px;fill:#000000;fill-opacity:1;stroke:none;font-family:Serif;-inkscape-font-specification:Serif"
       xml:space="preserve"><tspan
         y="412.36218"
         x="222"
         id="tspan3835"
         sodipodi:role="line"
         style="font-size:32px">2</tspan><tspan
         style="font-size:16px"
         id="tspan3837"
         y="452.36218"
         x="222"
         sodipodi:role="line" /></text>
    <path
       sodipodi:type="arc"
       style="fill:none;stroke:#060816;stroke-width:1.20000005;stroke-linecap:square;stroke-linejoin:miter;stroke-miterlimit:4;stroke-opacity:1;stroke-dasharray:none;stroke-dashoffset:0"
       id="path3839"
       sodipodi:cx="160"
       sodipodi:cy="392.36218"
       sodipodi:rx="60"
       sodipodi:ry="60"
       d="m 220,392.36218 a 60,60 0 1 1 -120,0 60,60 0 1 1 120,0 z"
       transform="matrix(0.66666666,0,0,0.66666666,273.33333,140.7874)" />
    <text
       xml:space="preserve"
       style="font-size:43px;font-style:normal;font-variant:normal;font-weight:normal;font-stretch:normal;line-height:125%;letter-spacing:0px;word-spacing:0px;fill:#000000;fill-opacity:1;stroke:none;font-family:Serif;-inkscape-font-specification:Serif"
       x="359.42859"
       y="412.79074"
       id="text3841"
       sodipodi:linespacing="125%"><tspan
         sodipodi:role="line"
         id="tspan3843"
         x="359.42859"
         y="412.79074"
         style="font-size:32px"> 3</tspan><tspan
         sodipodi:role="line"
         x="359.42859"
         y="452.79074"
         id="tspan3845"
         style="font-size:16px" /></text>
    <path
       transform="matrix(0.66666666,0,0,0.66666666,423.90474,140.35884)"
       d="m 220,392.36218 a 60,60 0 1 1 -120,0 60,60 0 1 1 120,0 z"
       sodipodi:ry="60"
       sodipodi:rx="60"
       sodipodi:cy="392.36218"
       sodipodi:cx="160"
       id="path3847"
       style="fill:none;stroke:#060816;stroke-width:1.20000005;stroke-linecap:square;stroke-linejoin:miter;stroke-miterlimit:4;stroke-opacity:1;stroke-dasharray:none;stroke-dashoffset:0"
       sodipodi:type="arc" />
    <text
       sodipodi:linespacing="125%"
       id="text3849"
       y="412.36218"
       x="522"
       style="font-size:43px;font-style:normal;font-variant:normal;font-weight:normal;font-stretch:normal;line-height:125%;letter-spacing:0px;word-spacing:0px;fill:#000000;fill-opacity:1;stroke:none;font-family:Serif;-inkscape-font-specification:Serif"
       xml:space="preserve"><tspan
         y="412.36218"
         x="522"
         id="tspan3851"
         sodipodi:role="line"
         style="font-size:32px">4</tspan><tspan
         style="font-size:16px"
         id="tspan3853"
         y="452.36218"
         x="522"
         sodipodi:role="line" /></text>
    <path
       style="fill:none;stroke:#000000;stroke-width:1px;stroke-linecap:butt;stroke-linejoin:miter;stroke-opacity:1;marker-end:url(#Arrow1Lend)"
       d="m 80,362.36218 c 10,-40 30,-50 80,-50 50,0 60,20 70,50"
       id="path3855"
       inkscape:connector-curvature="0"
       sodipodi:nodetypes="ccc" />
    <path
       style="fill:none;stroke:#000000;stroke-width:1px;stroke-linecap:butt;stroke-linejoin:miter;stroke-opacity:1;marker-start:url(#Arrow1Lstart);marker-end:none"
       d="m 80,442.36218 c 32.49122,47.73097 50,50 80,50 40,0 57.88665,-25.85334 70,-50"
       id="path3857"
       inkscape:connector-curvature="0"
       sodipodi:nodetypes="ccc" />
    <text
       xml:space="preserve"
       style="font-size:43px;font-style:normal;font-variant:normal;font-weight:normal;font-stretch:normal;line-height:125%;letter-spacing:0px;word-spacing:0px;fill:#000000;fill-opacity:1;stroke:none;font-family:Serif;-inkscape-font-specification:Serif"
       x="290"
       y="302.36218"
       id="text4611"
       sodipodi:linespacing="125%"><tspan
         sodipodi:role="line"
         id="tspan4613"
         x="290"
         y="302.36218"
         style="font-size:16px">L/p1</tspan></text>
    <path
       sodipodi:nodetypes="ccc"
       inkscape:connector-curvature="0"
       id="path4615"
       d="m 230,362.36218 c 10,-40 30,-50 80,-50 50,0 60,20 70,50"
       style="fill:none;stroke:#000000;stroke-width:1px;stroke-linecap:butt;stroke-linejoin:miter;stroke-opacity:1;marker-end:url(#Arrow1Lend)" />
    <text
       sodipodi:linespacing="125%"
       id="text4617"
       y="302.36218"
       x="440"
       style="font-size:43px;font-style:normal;font-variant:normal;font-weight:normal;font-stretch:normal;line-height:125%;letter-spacing:0px;word-spacing:0px;fill:#000000;fill-opacity:1;stroke:none;font-family:Serif;-inkscape-font-specification:Serif"
       xml:space="preserve"><tspan
         style="font-size:16px"
         y="302.36218"
         x="440"
         id="tspan4619"
         sodipodi:role="line">H/p1</tspan></text>
    <path
       style="fill:none;stroke:#000000;stroke-width:1px;stroke-linecap:butt;stroke-linejoin:miter;stroke-opacity:1;marker-end:url(#Arrow1Lend)"
       d="m 380,362.36218 c 10,-40 30,-50 80,-50 50,0 60,20 70,50"
       id="path4621"
       inkscape:connector-curvature="0"
       sodipodi:nodetypes="ccc" />
    <text
       sodipodi:linespacing="125%"
       id="text4629"
       y="512.36218"
       x="292"
       style="font-size:43px;font-style:normal;font-variant:normal;font-weight:normal;font-stretch:normal;line-height:125%;letter-spacing:0px;word-spacing:0px;fill:#000000;fill-opacity:1;stroke:none;font-family:Serif;-inkscape-font-specification:Serif"
       xml:space="preserve"><tspan
         style="font-size:16px"
         y="512.36218"
         x="292"
         id="tspan4631"
         sodipodi:role="line">L/p2</tspan></text>
    <path
       sodipodi:nodetypes="ccc"
       inkscape:connector-curvature="0"
       id="path4633"
       d="m 230,442.36218 c 32.49122,47.73097 50,50 80,50 40,0 57.88665,-25.85334 70,-50"
       style="fill:none;stroke:#000000;stroke-width:1px;stroke-linecap:butt;stroke-linejoin:miter;stroke-opacity:1;marker-start:url(#Arrow1Lstart);marker-end:none" />
    <text
       xml:space="preserve"
       style="font-size:43px;font-style:normal;font-variant:normal;font-weight:normal;font-stretch:normal;line-height:125%;letter-spacing:0px;word-spacing:0px;fill:#000000;fill-opacity:1;stroke:none;font-family:Serif;-inkscape-font-specification:Serif"
       x="444"
       y="512.36218"
       id="text4635"
       sodipodi:linespacing="125%"><tspan
         sodipodi:role="line"
         id="tspan4637"
         x="444"
         y="512.36218"
         style="font-size:16px">H/p2</tspan></text>
    <path
       style="fill:none;stroke:#000000;stroke-width:1px;stroke-linecap:butt;stroke-linejoin:miter;stroke-opacity:1;marker-start:url(#Arrow1Lstart);marker-end:none"
       d="m 380,442.36218 c 32.49122,47.73097 50,50 80,50 40,0 57.88665,-25.85334 70,-50"
       id="path4639"
       inkscape:connector-curvature="0"
       sodipodi:nodetypes="ccc" />
    <path
       sodipodi:type="arc"
       style="fill:none;stroke:#060816;stroke-width:1.20000005;stroke-linecap:square;stroke-linejoin:miter;stroke-miterlimit:4;stroke-opacity:1;stroke-dasharray:none;stroke-dashoffset:0"
       id="path4641"
       sodipodi:cx="160"
       sodipodi:cy="392.36218"
       sodipodi:rx="60"
       sodipodi:ry="60"
       d="m 220,392.36218 a 60,60 0 1 1 -120,0 60,60 0 1 1 120,0 z"
       transform="matrix(0.66666666,0,0,0.66666666,631.33333,140.7874)" />
    <path
       style="fill:none;stroke:#000000;stroke-width:1;stroke-linecap:butt;stroke-linejoin:miter;stroke-miterlimit:4;stroke-opacity:1;stroke-dasharray:1, 3;stroke-dashoffset:1.2"
       d="m 618,402.36218 50,0"
       id="path4649"
       inkscape:connector-curvature="0" />
    <text
       xml:space="preserve"
       style="font-size:43px;font-style:normal;font-variant:normal;font-weight:normal;font-stretch:normal;line-height:125%;letter-spacing:0px;word-spacing:0px;fill:#000000;fill-opacity:1;stroke:none;font-family:Serif;-inkscape-font-specification:Serif"
       x="612.15247"
       y="501.82904"
       id="text3033"
       sodipodi:linespacing="125%"><tspan
         sodipodi:role="line"
         id="tspan3035"
         x="612.15247"
         y="501.82904" /></text>
    <g
       ns0:preamble=""
       ns0:text="$n$\n"
       word-spacing="normal"
       letter-spacing="normal"
       font-size-adjust="none"
       font-stretch="normal"
       font-weight="normal"
       font-variant="normal"
       font-style="normal"
       stroke-miterlimit="10.433"
       xml:space="preserve"
       transform="matrix(3.6,0,0,-3.6,-76.364,2775.8982)"
       id="content"
       style="font-style:normal;font-variant:normal;font-weight:normal;font-stretch:normal;letter-spacing:normal;word-spacing:normal;text-anchor:start;fill:none;stroke:#000000;stroke-linecap:butt;stroke-linejoin:miter;stroke-miterlimit:10.43299961;stroke-opacity:1;stroke-dasharray:none;stroke-dashoffset:0">
<path
   id="path3483"
   d="m 224.31,657.82 0,-0.01 -0.01,-0.02 0,-0.01 0,-0.02 -0.01,-0.03 -0.01,-0.03 -0.01,-0.03 0,-0.04 -0.01,-0.03 -0.01,-0.03 0,-0.01 -0.01,-0.02 0,-0.01 0,-0.02 0,-0.01 -0.01,-0.01 0,-0.02 0,-0.01 0,-0.01 -0.01,-0.01 0,-0.01 0,-0.01 0,-0.01 0,0 0,-0.01 0,-0.01 c 0,-0.17 0.14,-0.26 0.29,-0.26 0.12,0 0.29,0.08 0.37,0.27 0,0.02 0.12,0.49 0.18,0.74 l 0.22,0.89 c 0.06,0.22 0.12,0.44 0.17,0.67 0.04,0.17 0.12,0.46 0.13,0.5 0.15,0.3 0.68,1.21 1.62,1.21 0.45,0 0.54,-0.37 0.54,-0.7 0,-0.61 -0.49,-1.89 -0.65,-2.31 -0.09,-0.23 -0.1,-0.35 -0.1,-0.46 0,-0.47 0.35,-0.81 0.82,-0.81 0.93,0 1.3,1.45 1.3,1.53 0,0.1 -0.09,0.1 -0.12,0.1 -0.1,0 -0.1,-0.04 -0.15,-0.18 -0.19,-0.68 -0.52,-1.24 -1.01,-1.24 -0.17,0 -0.24,0.1 -0.24,0.33 0,0.25 0.09,0.49 0.18,0.71 0.19,0.52 0.61,1.62 0.61,2.18 0,0.67 -0.43,1.07 -1.15,1.07 -0.89,0 -1.38,-0.64 -1.55,-0.87 -0.05,0.56 -0.46,0.87 -0.92,0.87 -0.45,0 -0.64,-0.39 -0.74,-0.57 -0.16,-0.34 -0.3,-0.92 -0.3,-0.96 0,-0.1 0.1,-0.1 0.12,-0.1 0.1,0 0.11,0.01 0.17,0.22 0.17,0.71 0.37,1.19 0.73,1.19 0.19,0 0.3,-0.13 0.3,-0.46 0,-0.21 -0.03,-0.32 -0.16,-0.83 z"
   inkscape:connector-curvature="0"
   style="fill:#000000;stroke-width:0" />
</g>    <path
       sodipodi:nodetypes="ccc"
       inkscape:connector-curvature="0"
       id="path3539"
       d="m 560,364.36218 c 10,-40 30,-50 80,-50 50,0 60,20 70,50"
       style="fill:none;stroke:#000000;stroke-width:1px;stroke-linecap:butt;stroke-linejoin:miter;stroke-opacity:1;marker-end:url(#Arrow1Lend)" />
    <path
       sodipodi:nodetypes="ccc"
       inkscape:connector-curvature="0"
       id="path3541"
       d="m 560,438.36218 c 32.49122,47.73097 50,50 80,50 40,0 57.88665,-25.85334 70,-50"
       style="fill:none;stroke:#000000;stroke-width:1px;stroke-linecap:butt;stroke-linejoin:miter;stroke-opacity:1;marker-start:url(#Arrow1Lstart);marker-end:none" />
    <path
       style="fill:none;stroke:#000000;stroke-width:1px;stroke-linecap:butt;stroke-linejoin:miter;stroke-opacity:1;marker-end:url(#Arrow1Lend)"
       d="m 48,315 c -13,0 -28,5 -28,30 0,15 15,25 30,22"
       id="path3035"
       inkscape:connector-curvature="0"
       transform="translate(0,62.36216)"
       sodipodi:nodetypes="ccc" />
    <text
       xml:space="preserve"
       style="font-size:43px;font-style:normal;font-variant:normal;font-weight:normal;font-stretch:normal;line-height:125%;letter-spacing:0px;word-spacing:0px;fill:#000000;fill-opacity:1;stroke:none;font-family:Serif;-inkscape-font-specification:Serif"
       x="6.8571434"
       y="404.36215"
       id="text3037"
       sodipodi:linespacing="125%"><tspan
         sodipodi:role="line"
         id="tspan3039"
         x="6.8571434"
         y="404.36215"
         style="font-size:16px">L</tspan></text>
  </g>
</svg>
